<svg xmlns="http://www.w3.org/2000/svg" width="500" height="500" viewBox="0 0 2000 2000">
  <defs>
    <style>
      .cls-1, .cls-14, .cls-18, .cls-20 {
        fill: #d9f2f7;
      }

      .cls-1, .cls-11, .cls-12, .cls-13, .cls-14, .cls-15 {
        stroke: #223f51;
      }

      .cls-1, .cls-11 {
        stroke-width: 86.55px;
      }

      .cls-2 {
        opacity: 0.75;
      }

      .cls-3 {
        fill: #fff;
      }

      .cls-10, .cls-12, .cls-13, .cls-14, .cls-15, .cls-16, .cls-17, .cls-18, .cls-19, .cls-20, .cls-3, .cls-4, .cls-5, .cls-6, .cls-7, .cls-8, .cls-9 {
        fill-rule: evenodd;
      }

      .cls-5 {
        fill: #007a3d;
      }

      .cls-6 {
        fill: #ce1126;
      }

      .cls-7 {
        fill: #009645;
      }

      .cls-8 {
        fill: #ed2e38;
      }

      .cls-9 {
        fill: #ed1f27;
      }

      .cls-10 {
        fill: #049f48;
      }

      .cls-11, .cls-15 {
        fill: none;
      }

      .cls-12, .cls-17 {
        fill: #abbfc3;
      }

      .cls-12, .cls-13 {
        stroke-width: 50px;
      }

      .cls-13 {
        fill: #b0c6cb;
      }

      .cls-14 {
        stroke-width: 56px;
      }

      .cls-15 {
        stroke-width: 46px;
      }

      .cls-16 {
        fill: #2f4c5c;
      }

      .cls-17 {
        stroke: #000;
        stroke-width: 1px;
      }

      .cls-19 {
        fill: #c8be68;
      }

      .cls-20 {
        stroke: #d9f2f7;
        stroke-width: 2px;
      }
    </style>
  </defs>
  <circle id="Ellipse_1_copy" data-name="Ellipse 1 copy" class="cls-1" cx="999.998" cy="999.998" r="956.592"/>
  <g class="cls-2">
    <g id="jor">
      <path class="cls-3" d="M999,1285v347H380V1262"/>
      <path class="cls-4" d="M80,1000H999v307H607l-194-54L88,1048Z"/>
      <path class="cls-5" d="M347,1746s147.048-81.94,148-82,144-50,144-50l2-1h393l2,350-257-11-235-73-154-93"/>
      <path class="cls-6" d="M335,1737s16.305,7.98,32.412,13.82C463.7,1702.84,951,1460,951,1460L80,1024l13,372,47,88,83,119,70,84Z"/>
      <path class="cls-3" d="M290,1480l-3,38,29-25,29,25-3-38,37-6-31-22,19-33-37,11-14-36-14,36-37-11,19,33-32,22Z"/>
    </g>
    <g id="syr">
      <path class="cls-3" d="M1000,1614V1288l895-22-78,218-123,178Z"/>
      <path class="cls-4" d="M1000,1612h696s-22.93,45.99-23,47-156.2,126.77-157,127-320,130-320,130l-192,21-4-23V1612Z"/>
      <path class="cls-5" d="M1000,926v380h923l31-342.745-27-34.771L1916,926H1000Z"/>
      <path class="cls-6" d="M1243,1532l55-37,53,37-23-63,55-37h-67l-19-63-18,62h-69l55,38Z"/>
      <path id="Shape_49_copy" data-name="Shape 49 copy" class="cls-6" d="M1623,1532l55-37,53,37-23-63,55-37h-67l-19-63-18,62h-69l55,38Z"/>
    </g>
    <g id="pal">
      <path class="cls-7" d="M1940,1000H1000l252-304,44-4,9,1h557l32,1,14,49Z"/>
      <path class="cls-3" d="M1252,723h660l-44-119L1767,372l-308-12-219-1Z"/>
      <path class="cls-4" d="M1000,81h370l124,59,64,48,202,181,14,16-10,2H1295L1110,274Z"/>
      <path class="cls-4" d="M921,157"/>
      <path class="cls-8" d="M1000,1000s-80-1.536-80-30c0-164.4-29-779.068-29-900,0-14.727,109,11,109,11l459,459Z"/>
    </g>
    <g id="leb">
      <path class="cls-3" d="M1000,265V814L63,839,61,696l75-150,81-119,67-82,123-87Z"/>
      <path class="cls-9" d="M75,1000h925V770H113L65,818,52,874Z"/>
      <path class="cls-9" d="M1000,310V83L837,82,650,122,491,196,388,295l12,16Z"/>
      <g>
        <path class="cls-10" d="M453,767s10.854,0.944,13-2,15-6,15-6,10.49-3.131,14-3,13-2,13-2,19.941-7.024,23-13,28.979-15.036,33-14,12,1,12,1,14.011,3.544,15,5,8,10,8,10l15,12,7,4s4.064,3.794,7,3,5-6,5-6,1.5-9.3,4-9,14,0,14,0,8.467,2.354,11,4a66.8,66.8,0,0,1,7,6s9.289,8.659,16,9,14,1,14,1v-5l-36-32s-18.776-6.15-19-46,1-33,1-33,7.141-16.566,25-7,30.692,9.5,43,9,27,0,27,0,37.58,7.969,49,17,18.818,15.051,24,16,9-3,9-3,8.008-5.348-7-16-13.625-11.742-37-25-31-19-31-19-15.765-9.783-3-17,17.7-6.125,27-1,30.316,12.623,36,6c-26.565-21.884-25-22-25-22s-38.186-38.067-59-33c-11.334-1.549-.591-12.958,0-10s34-3,34-3l30-6s-38.179-14.73-52-18-16-5-16-5-8.554-10.083,8-9,33,4,33,4l11-1s-65.4-44.9-69-49-22-17-22-17l-8-5s-17.588-7.58,3-14c16.836,3.763,17,6,17,6l13,2h19s-34.869-20.058-37-23-7.621-8.339-3-11a103.694,103.694,0,0,0,15,1s6.589-.185,4-4-54.742-38.842-70-36-46.625-40.712-43-46-13.821,27.35-26,32c-11.509,10.813-27.733,23.9-29,26s2.959,2.439,5,2,14-3,14-3,4.708,2.517-12,15c-19.12,10.339-31.165,18.08-37,26,14.4-.253,17,0,17,0s10.93,8.021-2,14-12.4-2.155-27,20c-4.554,6.479-34.944,22.868-44,27s-13.587,15.819,0,15c13.051-2.159,20-4,20-4,7.789-1.911,14.831-2.36,16,12,0.9,7.929-3.394,17.637-19,30-17.749,5.664-30.114,9.941-38,21-11.1,10.523-25,22-25,22s7.733,15.65,35-2c9.447-4.654,19.135-11.559,23,0,2.123,9.281,5.1,17.157-12,23-18.167,11.47-43.493,29.55-52,39s-15.748,12.272-27,12c4.291,6.427,8.3,9.687,14,10s55.011-14.931,67-26c12.123-5.442,18-6,18-6s22.03,6.615,6,20-64,26-64,26-14.183,3.7-16,7,5.677,12.014,30,10c23.251-6.436,61.194-21.744,65-23s23.136-16.4,40-3c10.165,10.587,13.914,19.962,4,41s-28.312,38.577-37,42c-8.956,4.9-30.907,12.5-34,16S453,767,453,767Z"/>
        <path class="cls-3" d="M715,588s10.138-10.981,20-5,4.812,8.57,3,13-9,8-9,8-10.8,1.223-11-1-5.922,5.4-10-7C710.861,589.848,715,588,715,588Z"/>
        <path class="cls-3" d="M672,577s18.184-8.488,25-2-4.919,14.487-6,15C669.81,600.059,655.014,585.3,672,577Z"/>
        <path class="cls-3" d="M587,623s-6.264-17.552-6-19,3.828-7.958,8-7,9.953,1.916,11,8c-2.891,5.709-12,18-12,18"/>
        <path class="cls-3" d="M554,604l5-1s7.894,2.978,8,6-0.137,8.7-1,9-6.605.2-8-5a36.7,36.7,0,0,0-3-8"/>
        <path class="cls-3" d="M540,609s-0.044-.254-0.138-0.7c-0.651-3.078-3.685-15.293-10.862-15.3-8.211-.011-6,8-6,8l4,11s3.521,14.353,10,7,3-6,3-6v-4Z"/>
        <path class="cls-3" d="M469,556s-6.237-12.629,13-11c19.346-.989,22,0,22,0s21.237,0.513,4,14c-18.874,6.723-12.653,6.186-18,7s-15.087,6.024-19-4S469,556,469,556Z"/>
        <path class="cls-3" d="M545,528s-4.825-7.244-1-8a11.284,11.284,0,0,1,7,1s9.21,4.918,7,9a4.787,4.787,0,0,1-6,1Z"/>
        <path class="cls-3" d="M574,521s-0.193-7.771,4-7c4.3-.43,6,4,6,4s-0.956,9.846-4,8C576.083,526.663,574.139,525.023,574,521Z"/>
        <path class="cls-3" d="M594,533a13.929,13.929,0,0,1,6-12c6.087,2.666,9.474,8.791,10,11s2.781,7.873,2,10-8.908,4.057-14-1S594,533,594,533Z"/>
        <path class="cls-3" d="M617,539s0.949-8.111,4-6a6.14,6.14,0,0,1,4,4s2.105,4.653,2,7c-1.909,2.486-4.543,4.416-6,3s-4-8-4-8"/>
        <path class="cls-3" d="M496,469a16.2,16.2,0,0,1,13,6c5.735,6.717,10.379,11.54,2,15s-13.238.036-16-4-7.98-8.288-5-15C494.834,468.367,496,469,496,469Z"/>
        <path class="cls-3" d="M520,473s-2.9-12.626,11-9c7.1,0.164,11.79-2.4,10,5-5.622,9.256-2.141,9.305-10,12s-6.48,2.14-9,0c-0.562-4.1-2-4-2-4v-4Z"/>
        <path class="cls-3" d="M579,460s12.008-3.832,14-5a10.474,10.474,0,0,1,5-1s9.053,3.057,0,10c-9.479,2.686-10.988.889-13,0A43.793,43.793,0,0,1,579,460Z"/>
        <path class="cls-3" d="M610,465s7.342-10.747,8-11,7.6-2.685,8,3-1.212,10.143-3,10-4.507,2.611-8,2a7.591,7.591,0,0,1-6-2Z"/>
        <path class="cls-3" d="M637,471a12.607,12.607,0,0,1,2.847-5.8c2.035-2.278,5.459-4.148,11.153-3.2,11.075-.081,14.838,2.842,15,9s-3.647,10.309-8,11a113.608,113.608,0,0,0-12-2,30.961,30.961,0,0,1-6-2l-3-4v-3"/>
        <path class="cls-3" d="M632,417s1.864-9.629,11-9c4,0.526,5.18,3.252,5,6s-3.8,8.881-6,9-8.611.2-9-2A30.516,30.516,0,0,0,632,417Z"/>
        <path class="cls-3" d="M616,417s-0.178.006-.484,0c-0.507,0-1.366-.029-2.351-0.137-2.407-.265-5.566-1.023-6.181-3.166A3.206,3.206,0,0,1,607,412c1.358-5.323,4.42-4.985,7-5s6.227-.918,8,2a4.275,4.275,0,0,1,0,5l-3,3h-3"/>
        <path class="cls-3" d="M571,421l9-9s9.355-2.617,10-3,4.829-.549,6,1,3.272,6.621,1,10a22.855,22.855,0,0,1-8,4c-1.287.356-8.279,0.782-10,2s-6.869.527-7,0a9.432,9.432,0,0,0-2-2Z"/>
        <path class="cls-3" d="M536,440l6-8,11-7s3.833-5.04,8,0c2.531,4.137,1.14,7.372-2,11s-14,10.67-17,12-6.2-1.72-7-2-1-3-1-3Z"/>
        <path class="cls-3" d="M534,407v-5s3.627-4.374,8-4c4.3,0.747,4.149,4.178,4,5s-2.7,5.805-4,6-7,4-7,4Z"/>
        <path class="cls-3" d="M677,504l2-3s4.667-4.4,10-3c4.771,2.524,8.045,5.047,8,8-0.607,3.515-3.4,7.835-8,9-5.812-.708-10.007-1.639-11-3a22.046,22.046,0,0,1-2-5Z"/>
        <path class="cls-3" d="M837,466"/>
      </g>
    </g>
  </g>
  <circle class="cls-11" cx="999.998" cy="999.998" r="956.592"/>
  <g>
    <g id="Bookpen">
      <path class="cls-12" d="M589,1513H769c104.454,0,170.056,97,237,97,72.77,0,125.51-99,220-99,71.92,0,188,3,188,3s60-17.8,60-85V641H582Z"/>
      <path class="cls-13" d="M2083,744"/>
      <path class="cls-14" d="M1368,505v903c-190,0-228.29,7.29-364,143-108.571-108.57-141-143-391-143V502c71.927,0,237.154-38.264,388,91C1124.81,469.187,1312.18,505,1368,505Z"/>
      <path class="cls-15" d="M608,604c107.611-12.7,270.56-27.116,391.192,93.515C1117.29,579.417,1245.24,600.19,1369,604"/>
    </g>
    <g>
      <path class="cls-16" d="M496.378,1477.39V437.985h144V1477.39l-72,183.6Z"/>
      <path id="Shape_7_copy" data-name="Shape 7 copy" class="cls-16" d="M496.642,444.005H640.373s2.729-100.011-74.6-100.011S496.642,444.005,496.642,444.005Z"/>
      <path class="cls-17" d="M528.378,429h79s1.5-53-41-53S528.378,429,528.378,429Z"/>
      <path class="cls-18" d="M613,483V463H524v20h89Z"/>
      <path id="Shape_8_copy" data-name="Shape 8 copy" class="cls-18" d="M613,516V496H524v20h89Z"/>
      <path id="Shape_8_copy_2" data-name="Shape 8 copy 2" class="cls-18" d="M613,549V529H524v20h89Z"/>
      <path class="cls-18" d="M542.378,1437.03h50V587.971h-50V1437.03Z"/>
      <path class="cls-18" d="M784.378,1568"/>
      <path class="cls-18" d="M623.378,1476s-16.606,42.98-25,65c-19.229-19.23-42.221-17.78-60,0l-28-65c23.934,5.5,30,4,30,4s20.44-11,28-11,20.914,5.53,30,10S623.378,1476,623.378,1476Z"/>
    </g>
    <g>
      <path class="cls-19" d="M1282,1231V1087h-28v144h28Z"/>
      <path class="cls-19" d="M1188,1087h28v144h-79s-21.12-2.12-30-11c-7.73,7.73-31,11-31,11h-50v7s0.18,34.72-33,38-38.607-8.07-42-10c4.778-6.94,12-18,12-18a30.114,30.114,0,0,0,17,5c10.394,0,16.82-8.07,18-18-0.05-10.54,0-98,0-98h28v71h47s10.73-1.9,13-3c-8.45-9.01-21.26-19.24-29-56,5.17-4.52,26.5-20.55,53-20a128.073,128.073,0,0,1,48,11s1.93,41.13-31,65c12.66,3.75,10.3,3,11,3h50V1087Z"/>
      <path class="cls-19" d="M915,1137h28v94H746s-51,.24-51-48c0-42.3,46.562-46,50-46h11v-9h28v80h52v-71h28v71h51v-71Z"/>
      <path class="cls-19" d="M905,1269s0.116-14,13-14,13,13,13,13,0.007,15-13,15S905,1269,905,1269Z"/>
      <path id="Shape_60_copy" data-name="Shape 60 copy" class="cls-19" d="M849,1266s0.116-14,13-14,13,13,13,13,0.007,15-13,15S849,1266,849,1266Z"/>
      <path id="Shape_60_copy_2" data-name="Shape 60 copy 2" class="cls-19" d="M817,1266s0.116-14,13-14,13,13,13,13,0.007,15-13,15S817,1266,817,1266Z"/>
      <path id="Shape_60_copy_3" data-name="Shape 60 copy 3" class="cls-19" d="M744,1091s0.116-14,13-14,13,13,13,13,0.007,15-13,15S744,1091,744,1091Z"/>
      <path id="Shape_60_copy_3-2" data-name="Shape 60 copy 3" class="cls-19" d="M712,1091s0.116-14,13-14,13,13,13,13,0.007,15-13,15S712,1091,712,1091Z"/>
      <path class="cls-20" d="M756,1208v-48s-31-4.36-31,24S756,1208,756,1208Z"/>
      <path class="cls-18" d="M1085,1159s16.13-12.67,45-4c1.27,6.7-7.26,28.25-23,38C1091.61,1183.62,1085,1159,1085,1159Z"/>
    </g>
    <g>
      <path id="Shape_60_copy_4" data-name="Shape 60 copy 4" class="cls-19" d="M1145,821s0.12-14,13-14,13,13,13,13,0.01,15-13,15S1145,821,1145,821Z"/>
      <path id="Shape_60_copy_4-2" data-name="Shape 60 copy 4" class="cls-19" d="M1113,821s0.12-14,13-14,13,13,13,13,0.01,15-13,15S1113,821,1113,821Z"/>
      <path class="cls-19" d="M1213,926s-5-7.9-5-24c-1.21-17.617,9-36,9-36a70.59,70.59,0,0,1,37-11c26.43,0.909,45.59,12.582,47,44,0.81,32.63-27.45,50-49,50H1080s-20.44-1.7-31-11c-12.08,6.653-22.04,11-32,11H913s-18.84-1.462-26-13c-11.4,7.845-18.357,13-33,13H771v6s-1.676,40-49,40c-4.214-.325-11-1-11-1s-28.1-4.232-30-9c3.428-7.72,10-20,10-20s14.769,7.56,29,7c14.359,0.98,23-9.779,23-19v-4H719s-35.206-2.477-37-37c0-5.565.171-9.071,0-13,0.854-12.215,8.977-40.5,52-44h37v71h43c-8.454-20.016-4.565-48.579,5-60,11.242-9.024,33.508-11,36-11s45.122-3.337,48,44c-0.761,13.911-4,20-4,20s5.091,7.128,14,7,28,0,28,0V805h28V926h46s8.47-.823,13-4c-7.97-7.27-26.95-30.875-29-55,18.41-22.306,72.74-25.619,101-8-1.75,38.766-18.75,53.784-31,63,6.05,4.554,14,4,14,4h53V855h28v71h49Z"/>
      <path id="Shape_62_copy" data-name="Shape 62 copy" class="cls-18" d="M840,926s-7.035-10.734-2-43c20.567-11.788,36.692-1.322,36,16C873.307,908.8,869.777,928.077,840,926Z"/>
      <path id="Shape_57_copy" data-name="Shape 57 copy" class="cls-18" d="M1028,877s16.13-12.673,45-4c1.27,6.7-7.26,28.245-23,38C1034.61,901.62,1028,877,1028,877Z"/>
      <path class="cls-18" d="M743,878v48c-8.654,0-32.389,5.161-32-23C712.805,870.905,743,878,743,878Z"/>
      <path class="cls-18" d="M1238,926s-7.04-10.734-2-43c20.57-11.788,36.69-1.322,36,16C1271.31,908.8,1267.78,928.077,1238,926Z"/>
    </g>
  </g>
</svg>
